<?xml version="1.0" encoding="UTF-8" standalone="no"?>
<!-- Uploaded to: SVG Repo, www.svgrepo.com, Generator: SVG Repo Mixer Tools -->

<svg
   width="800px"
   height="800px"
   viewBox="0 0 48 48"
   id="Layer_2"
   data-name="Layer 2"
   version="1.1"
   sodipodi:docname="fixed.svg"
   inkscape:version="1.4 (86a8ad7, 2024-10-11)"
   xmlns:inkscape="http://www.inkscape.org/namespaces/inkscape"
   xmlns:sodipodi="http://sodipodi.sourceforge.net/DTD/sodipodi-0.dtd"
   xmlns="http://www.w3.org/2000/svg"
   xmlns:svg="http://www.w3.org/2000/svg">
  <sodipodi:namedview
     id="namedview3"
     pagecolor="#ffffff"
     bordercolor="#000000"
     borderopacity="0.25"
     inkscape:showpageshadow="2"
     inkscape:pageopacity="0.0"
     inkscape:pagecheckerboard="0"
     inkscape:deskcolor="#d1d1d1"
     inkscape:zoom="0.36460193"
     inkscape:cx="-373.00954"
     inkscape:cy="552.65752"
     inkscape:window-width="1920"
     inkscape:window-height="1027"
     inkscape:window-x="-8"
     inkscape:window-y="-8"
     inkscape:window-maximized="1"
     inkscape:current-layer="Layer_2" />
  <defs
     id="defs1">
    <style
       id="style1">.cls-1{fill:none;stroke:#000000;stroke-linecap:round;stroke-linejoin:round;}</style>
  </defs>
  <path
     class="cls-1"
     d="m 31.051625,27.52 -3.6,2.6 a 0.33,0.33 0 0 0 -0.12,0.38 l 1.36,4.21 a 0.51,0.51 0 0 1 -0.79,0.58 l -3.58,-2.6 a 0.35,0.35 0 0 0 -0.41,0 l -3.58,2.6 a 0.52,0.52 0 0 1 -0.73,-0.12 0.53,0.53 0 0 1 -0.07,-0.46 l 1.37,-4.21 a 0.33,0.33 0 0 0 -0.12,-0.38 l -3.58,-2.6 a 0.52,0.52 0 0 1 -0.11,-0.73 0.51,0.51 0 0 1 0.41,-0.21 h 4.43 a 0.33,0.33 0 0 0 0.32,-0.24 l 1.37,-4.21 a 0.52,0.52 0 0 1 1,0 l 1.36,4.21 a 0.35,0.35 0 0 0 0.33,0.24 h 4.43 a 0.52,0.52 0 0 1 0.33,0.94 z"
     id="path1" />
  <path
     class="cls-1"
     d="M41.68,13H24.77c-2-.1-5.93-4.23-8.19-4.23H6.68A2.18,2.18,0,0,0,4.5,11h0v7.29h39V14.87A1.83,1.83,0,0,0,41.68,13Z"
     id="path2" />
  <path
     class="cls-1"
     d="M43.5,18.28H4.5V37A2.18,2.18,0,0,0,6.67,39.2H41.32A2.18,2.18,0,0,0,43.5,37h0Z"
     id="path3" />
  <path
     style="fill:#4fdef9;fill-opacity:1;stroke-width:2.74272"
     d="M 93.981335,635.16556 85.024234,627.16395 84.252001,470.60253 83.479769,314.04112 H 398.97879 714.47783 v 156.54586 156.54587 l -8.01718,8.01715 -8.01715,8.01719 H 400.69096 102.93844 Z m 277.324075,-58.0676 30.63204,-22.18576 30.70877,22.18576 c 32.50726,23.48509 41.2686,26.42797 49.98975,16.79121 6.83886,-7.55687 6.2119,-13.63978 -5.07386,-49.22707 -5.46086,-17.21969 -9.92883,-32.7069 -9.92883,-34.41604 0,-1.70914 12.65079,-12.17796 28.11286,-23.26404 32.19582,-23.08396 34.96964,-25.9319 34.96964,-35.90417 0,-14.03725 -6.06001,-16.12602 -49.21702,-16.96415 l -39.3595,-0.76438 -12.62314,-36.97347 c -10.57706,-30.98056 -13.84564,-37.64894 -20.16558,-41.14076 -6.7142,-3.70966 -8.37074,-3.71551 -15.08494,-0.0532 -6.42158,3.50268 -9.36314,9.70833 -19.79381,41.7582 l -12.25133,37.64413 -41.13026,0.75391 -41.13025,0.75392 -4.21547,7.54247 c -3.75763,6.72329 -3.76846,8.34164 -0.0996,14.90068 2.2637,4.04702 16.76582,16.53188 32.22692,27.74414 16.49879,11.96477 28.11111,22.29834 28.11111,25.01549 0,2.54627 -4.31978,17.45681 -9.59951,33.13455 -11.36042,33.73383 -12.11007,44.55667 -3.50381,50.58475 3.35264,2.34826 8.72778,4.26959 11.94476,4.26959 3.21697,0 19.63347,-9.9836 36.48111,-22.18575 z"
     id="path6"
     transform="scale(0.06)" />
  <path
     style="fill:#4fdef9;fill-opacity:1;stroke-width:2.74272"
     d="m 83.652875,238.5283 c 0,-62.72602 1.864813,-71.90515 16.104035,-79.26854 12.07025,-6.24177 172.04158,-6.37705 189.66149,-0.16038 6.44724,2.27472 30.36121,16.40809 53.14214,31.40748 22.78094,14.99939 46.00857,29.18315 51.61696,31.51947 8.77933,3.65723 30.81901,4.24784 158.51661,4.24784 h 148.31948 l 6.73211,6.73212 c 6.25413,6.25414 6.73213,8.68835 6.73213,34.28397 V 294.8421 H 399.06535 83.652875 Z"
     id="path7"
     transform="scale(0.06)" />
</svg>
